<svg id="_002-shopping-cart" data-name="002-shopping-cart" xmlns="http://www.w3.org/2000/svg" width="24.379" height="21.427" viewBox="0 0 24.379 21.427">
  <path id="Path_196" data-name="Path 196" d="M7.855,14.285H20.808a.714.714,0,0,0,.687-.518l2.857-10a.714.714,0,0,0-.687-.91H6.207L5.7.559A.714.714,0,0,0,5,0H.714a.714.714,0,0,0,0,1.428H4.427l2.579,11.6a2.142,2.142,0,0,0,.851,4.109H20.808a.714.714,0,1,0,0-1.428H7.856a.714.714,0,0,1,0-1.428Zm14.863-10-2.449,8.571H8.429l-1.9-8.571Zm0,0" fill="#fff"/>
  <path id="Path_197" data-name="Path 197" d="M150,362.143A2.143,2.143,0,1,0,152.143,360,2.145,2.145,0,0,0,150,362.143Zm2.143-.714a.714.714,0,1,1-.714.714A.715.715,0,0,1,152.143,361.428Zm0,0" transform="translate(-142.858 -342.859)" fill="#fff"/>
  <path id="Path_198" data-name="Path 198" d="M362,362.143A2.143,2.143,0,1,0,364.143,360,2.145,2.145,0,0,0,362,362.143Zm2.143-.714a.714.714,0,1,1-.714.714A.715.715,0,0,1,364.143,361.428Zm0,0" transform="translate(-344.763 -342.859)" fill="#fff"/>
</svg>
