<svg xmlns="http://www.w3.org/2000/svg" width="33.878" height="20" viewBox="0 0 33.878 20">
  <path id="Path_169" data-name="Path 169" d="M4.035.374a9.949,9.949,0,0,0-7.23-2.867A9.947,9.947,0,0,0-10.425.374a10.169,10.169,0,0,0-.877.987,8.219,8.219,0,0,0-.813-.876q-2.77-2.534-7.95-2.534h-6.842V5.585h4.322V1.718h2.409a6.813,6.813,0,0,1,4.89,1.536A4.98,4.98,0,0,1-13.95,5.585h5.286A6.217,6.217,0,0,1-7.267,3.1,5.3,5.3,0,0,1-3.181,1.274,5.308,5.308,0,0,1,.9,3.1,6.339,6.339,0,0,1,2.566,7.521,6.286,6.286,0,0,1,.9,11.925,5.326,5.326,0,0,1-3.181,13.74a5.322,5.322,0,0,1-4.086-1.815A6.124,6.124,0,0,1-8.656,9.476h-5.238A4.9,4.9,0,0,1-15.287,12a6.41,6.41,0,0,1-4.557,1.495h-2.741V9.476h-4.322v7.838h6.62q5.54,0,8.241-2.632a8.435,8.435,0,0,0,.815-.934,10.4,10.4,0,0,0,.806.892,9.947,9.947,0,0,0,7.23,2.867,9.949,9.949,0,0,0,7.23-2.867A9.566,9.566,0,0,0,6.971,7.507,9.566,9.566,0,0,0,4.035.374" transform="translate(26.907 2.493)" fill="#fff"/>
</svg>
