<svg xmlns="http://www.w3.org/2000/svg" width="23.77" height="23.775" viewBox="0 0 23.77 23.775">
  <g id="_002-instagram" data-name="002-instagram" transform="translate(-0.449)">
    <path id="Path_199" data-name="Path 199" d="M24.159,6.99a8.687,8.687,0,0,0-.553-2.884A6.09,6.09,0,0,0,20.128.627,8.71,8.71,0,0,0,17.244.074C15.971.014,15.567,0,12.339,0s-3.632.014-4.9.07A8.69,8.69,0,0,0,4.555.622,5.8,5.8,0,0,0,2.446,2a5.854,5.854,0,0,0-1.37,2.1A8.711,8.711,0,0,0,.524,6.985C.463,8.258.449,8.662.449,11.89s.014,3.632.07,4.9a8.687,8.687,0,0,0,.553,2.884A6.089,6.089,0,0,0,4.55,23.153a8.711,8.711,0,0,0,2.884.553c1.268.056,1.672.07,4.9.07s3.632-.014,4.9-.07a8.685,8.685,0,0,0,2.884-.553A6.081,6.081,0,0,0,23.6,19.674a8.717,8.717,0,0,0,.553-2.884c.056-1.268.07-1.672.07-4.9S24.215,8.258,24.159,6.99ZM22.018,16.7a6.517,6.517,0,0,1-.409,2.206,3.944,3.944,0,0,1-2.257,2.257,6.54,6.54,0,0,1-2.206.409c-1.254.056-1.63.07-4.8.07s-3.553-.014-4.8-.07a6.513,6.513,0,0,1-2.206-.409,3.658,3.658,0,0,1-1.365-.887,3.7,3.7,0,0,1-.887-1.365A6.541,6.541,0,0,1,2.674,16.7c-.056-1.254-.07-1.63-.07-4.8s.014-3.553.07-4.8a6.513,6.513,0,0,1,.409-2.206,3.614,3.614,0,0,1,.892-1.366A3.691,3.691,0,0,1,5.34,2.638a6.544,6.544,0,0,1,2.206-.409c1.254-.056,1.63-.07,4.8-.07s3.553.014,4.8.07a6.517,6.517,0,0,1,2.206.409,3.656,3.656,0,0,1,1.365.887,3.7,3.7,0,0,1,.887,1.366A6.543,6.543,0,0,1,22.018,7.1c.056,1.254.07,1.63.07,4.8S22.074,15.443,22.018,16.7Zm0,0" transform="translate(0 0)"/>
    <path id="Path_200" data-name="Path 200" d="M131.057,124.5a6.107,6.107,0,1,0,6.107,6.107A6.109,6.109,0,0,0,131.057,124.5Zm0,10.069a3.962,3.962,0,1,1,3.962-3.962A3.962,3.962,0,0,1,131.057,134.569Zm0,0" transform="translate(-118.718 -118.718)"/>
    <path id="Path_201" data-name="Path 201" d="M365.3,90.027a1.426,1.426,0,1,1-1.426-1.426A1.426,1.426,0,0,1,365.3,90.027Zm0,0" transform="translate(-345.187 -84.486)"/>
  </g>
</svg>
