<svg id="Klarna_Logo_black" xmlns="http://www.w3.org/2000/svg" width="204.273" height="45.599" viewBox="0 0 204.273 45.599">
  <path id="Path_170" data-name="Path 170" d="M50,0H39.943A25.742,25.742,0,0,1,29.569,20.748L25.6,23.724,41.025,44.743H53.7L39.492,25.393A35.561,35.561,0,0,0,50,0Z" transform="translate(-14.054)" fill="#fff"/>
  <rect id="Rectangle_1695" data-name="Rectangle 1695" width="10.284" height="44.743" fill="#fff"/>
  <rect id="Rectangle_1696" data-name="Rectangle 1696" width="9.697" height="44.743" transform="translate(42.623)" fill="#fff"/>
  <path id="Path_171" data-name="Path 171" d="M281.763,28.7c-3.7,0-7.217,1.128-9.562,4.33V29.557H263V60.5h9.336V44.261c0-4.691,3.157-6.991,6.946-6.991,4.059,0,6.4,2.436,6.4,6.946V60.543h9.246V40.833C294.933,33.616,289.205,28.7,281.763,28.7Z" transform="translate(-144.378 -15.755)" fill="#fff"/>
  <path id="Path_172" data-name="Path 172" d="M149.928,29.557v1.985a16.107,16.107,0,0,0-9.2-2.842,16.327,16.327,0,0,0,0,32.655,16.107,16.107,0,0,0,9.2-2.842V60.5h9.246V29.557Zm-8.434,23.409a8.171,8.171,0,0,1-8.389-7.938,8.4,8.4,0,0,1,16.778,0A8.171,8.171,0,0,1,141.494,52.966Z" transform="translate(-68.291 -15.755)" fill="#fff"/>
  <path id="Path_173" data-name="Path 173" d="M221.772,34.614V30.6H212.3V61.541h9.517V47.108c0-4.871,5.277-7.487,8.93-7.487h.09V30.6A11.617,11.617,0,0,0,221.772,34.614Z" transform="translate(-116.546 -16.798)" fill="#fff"/>
  <path id="Path_174" data-name="Path 174" d="M366.529,29.557v1.985a16.107,16.107,0,0,0-9.2-2.842,16.327,16.327,0,1,0,0,32.655,16.107,16.107,0,0,0,9.2-2.842V60.5h9.246V29.557Zm-8.434,23.409a8.171,8.171,0,0,1-8.389-7.938,8.4,8.4,0,1,1,8.389,7.938Z" transform="translate(-187.198 -15.755)" fill="#fff"/>
  <g id="Group_116" data-name="Group 116" transform="translate(192.591 12.99)">
    <path id="Path_175" data-name="Path 175" d="M431.969,31.722a.714.714,0,0,0-.812-.722H430.3v2.345h.406v-.857h.451l.361.857h.451l-.406-.947A.7.7,0,0,0,431.969,31.722Zm-.812.361h-.451v-.722h.451c.271,0,.406.135.406.361S431.473,32.082,431.157,32.082Z" transform="translate(-428.812 -30.008)" fill="#fff"/>
    <path id="Path_176" data-name="Path 176" d="M429.21,28.8A2.214,2.214,0,0,0,427,31.01a2.243,2.243,0,0,0,2.21,2.21,2.21,2.21,0,0,0,0-4.42Zm0,4.014a1.771,1.771,0,0,1-1.759-1.8,1.8,1.8,0,0,1,1.759-1.8,1.771,1.771,0,0,1,1.759,1.8A1.8,1.8,0,0,1,429.21,32.814Z" transform="translate(-427 -28.8)" fill="#fff"/>
  </g>
  <path id="Path_177" data-name="Path 177" d="M432.918,74.9a5.818,5.818,0,1,0,5.818,5.818A5.833,5.833,0,0,0,432.918,74.9Z" transform="translate(-234.464 -41.118)" fill="#fff"/>
</svg>
