<svg xmlns="http://www.w3.org/2000/svg" width="160.091" height="122.317" viewBox="0 0 160.091 122.317">
  <g id="Group_114" data-name="Group 114" transform="translate(-331.571 -172.994)">
    <path id="Path_167" data-name="Path 167" d="M-50.9-6.993a3.556,3.556,0,0,1,.714,1.176,4.372,4.372,0,0,1,.231,1.488A4.236,4.236,0,0,1-51.449-1,5.416,5.416,0,0,1-55.155.312,6.85,6.85,0,0,1-57.2-.005a7.876,7.876,0,0,1-1.762-.768l-.462.784h-.859l-.15-5.221h.87a11.506,11.506,0,0,0,.628,1.746,6.1,6.1,0,0,0,.951,1.456A4.309,4.309,0,0,0-56.675-1a3.809,3.809,0,0,0,1.735.376,3.924,3.924,0,0,0,1.294-.193,2.265,2.265,0,0,0,.9-.548,2.237,2.237,0,0,0,.51-.833,3.342,3.342,0,0,0,.167-1.1A3.056,3.056,0,0,0-52.587-5a3.175,3.175,0,0,0-1.536-1.2q-.7-.279-1.6-.618t-1.558-.639a5.055,5.055,0,0,1-2-1.52A3.949,3.949,0,0,1-60-11.43a3.756,3.756,0,0,1,.354-1.622,4.226,4.226,0,0,1,1.01-1.343,4.577,4.577,0,0,1,1.472-.875,5.025,5.025,0,0,1,1.772-.317,5.191,5.191,0,0,1,1.885.322,8.969,8.969,0,0,1,1.52.752l.44-.73h.859l.086,5.06h-.87q-.236-.87-.532-1.665a5.886,5.886,0,0,0-.768-1.439,3.524,3.524,0,0,0-1.128-.994,3.316,3.316,0,0,0-1.633-.371,2.493,2.493,0,0,0-1.74.655,2.083,2.083,0,0,0-.72,1.6,2.759,2.759,0,0,0,.462,1.638,3.381,3.381,0,0,0,1.343,1.069q.784.376,1.542.65t1.466.585a10.922,10.922,0,0,1,1.241.634A4.662,4.662,0,0,1-50.9-6.993ZM-32.143,0h-6.864V-.763l.838-.064A3.11,3.11,0,0,0-37.4-.956a1.063,1.063,0,0,0,.516-.381,1.2,1.2,0,0,0,.161-.671V-13.052a1.48,1.48,0,0,0-.118-.628A.963.963,0,0,0-37.4-14.1a5.645,5.645,0,0,0-.811-.242,5.356,5.356,0,0,0-.8-.134v-.763h6.864v.763a6.928,6.928,0,0,0-.795.081,5.463,5.463,0,0,0-.806.177.848.848,0,0,0-.548.419,1.466,1.466,0,0,0-.14.645V-2.127a1.249,1.249,0,0,0,.156.628,1.064,1.064,0,0,0,.532.435,5.087,5.087,0,0,0,.736.188,5.362,5.362,0,0,0,.865.113Zm20.637-6.993a3.556,3.556,0,0,1,.714,1.176,4.372,4.372,0,0,1,.231,1.488A4.236,4.236,0,0,1-12.054-1,5.416,5.416,0,0,1-15.76.312,6.85,6.85,0,0,1-17.8-.005a7.876,7.876,0,0,1-1.762-.768l-.462.784h-.859l-.15-5.221h.87a11.506,11.506,0,0,0,.628,1.746,6.1,6.1,0,0,0,.951,1.456A4.309,4.309,0,0,0-17.28-1a3.809,3.809,0,0,0,1.735.376A3.924,3.924,0,0,0-14.25-.816a2.265,2.265,0,0,0,.9-.548,2.237,2.237,0,0,0,.51-.833,3.342,3.342,0,0,0,.167-1.1A3.056,3.056,0,0,0-13.192-5a3.175,3.175,0,0,0-1.536-1.2q-.7-.279-1.6-.618t-1.558-.639a5.055,5.055,0,0,1-2-1.52A3.949,3.949,0,0,1-20.6-11.43a3.756,3.756,0,0,1,.354-1.622,4.226,4.226,0,0,1,1.01-1.343,4.577,4.577,0,0,1,1.472-.875A5.025,5.025,0,0,1-16-15.587a5.191,5.191,0,0,1,1.885.322,8.969,8.969,0,0,1,1.52.752l.44-.73h.859l.086,5.06h-.87q-.236-.87-.532-1.665a5.886,5.886,0,0,0-.768-1.439,3.524,3.524,0,0,0-1.128-.994,3.316,3.316,0,0,0-1.633-.371,2.493,2.493,0,0,0-1.74.655,2.083,2.083,0,0,0-.72,1.6,2.759,2.759,0,0,0,.462,1.638,3.381,3.381,0,0,0,1.343,1.069q.784.376,1.542.65t1.466.585a10.922,10.922,0,0,1,1.241.634A4.662,4.662,0,0,1-11.506-6.993Zm24.483-4.114h-.741a5.1,5.1,0,0,0-.349-.918,8.256,8.256,0,0,0-.564-1,5.032,5.032,0,0,0-.7-.865,1.4,1.4,0,0,0-.736-.424q-.333-.043-.838-.064t-.935-.021H7.488V-2.213a1.412,1.412,0,0,0,.15.65,1,1,0,0,0,.526.457,6.365,6.365,0,0,0,.811.2,5.961,5.961,0,0,0,.961.14V0H2.74V-.763q.3-.021.918-.086a3.537,3.537,0,0,0,.854-.161,1.043,1.043,0,0,0,.521-.4,1.3,1.3,0,0,0,.167-.7V-14.405H4.577q-.333,0-.827.016t-.945.07a1.309,1.309,0,0,0-.736.424,5.649,5.649,0,0,0-.7.865A7.3,7.3,0,0,0,.8-12a6.226,6.226,0,0,0-.344.9H-.3v-4.136H12.977ZM36.257-4.49,35.967,0H23.313V-.763q.322-.021.859-.091a2.917,2.917,0,0,0,.7-.145.98.98,0,0,0,.478-.419,1.413,1.413,0,0,0,.134-.655V-13.03a1.574,1.574,0,0,0-.118-.628.915.915,0,0,0-.494-.446,3.643,3.643,0,0,0-.779-.247,5.855,5.855,0,0,0-.779-.129v-.763H35.108v3.674H34.3a4.954,4.954,0,0,0-.929-1.735,2.3,2.3,0,0,0-1.359-1q-.333-.043-.795-.064t-1.053-.021h-2.4v6.059H29.49A3.433,3.433,0,0,0,30.7-8.492a1.656,1.656,0,0,0,.671-.521,2.775,2.775,0,0,0,.4-.833,5.225,5.225,0,0,0,.22-.983H32.8v5.962h-.806a4.8,4.8,0,0,0-.231-1.09,2.784,2.784,0,0,0-.392-.833,1.546,1.546,0,0,0-.757-.548,3.975,3.975,0,0,0-1.123-.129H27.771V-2.89a4.8,4.8,0,0,0,.1,1.085,1.008,1.008,0,0,0,.376.6,1.611,1.611,0,0,0,.763.263,12.113,12.113,0,0,0,1.375.059h.935a9.323,9.323,0,0,0,.978-.043,5.769,5.769,0,0,0,.843-.156,1.289,1.289,0,0,0,.618-.306,6.859,6.859,0,0,0,1.037-1.563,10.512,10.512,0,0,0,.693-1.542ZM61.9,0H57.8q-1.364-2.138-2.465-3.7t-2.39-3.212H51.384v4.834a1.713,1.713,0,0,0,.118.661.831.831,0,0,0,.5.435,3.319,3.319,0,0,0,.677.14q.483.064.816.075V0H47.055V-.763q.258-.021.747-.075a2.571,2.571,0,0,0,.682-.14.926.926,0,0,0,.467-.408,1.439,1.439,0,0,0,.145-.687V-13.095a1.911,1.911,0,0,0-.107-.666.789.789,0,0,0-.5-.44,4.65,4.65,0,0,0-.7-.177,6.635,6.635,0,0,0-.73-.1v-.763h7.036a7.947,7.947,0,0,1,1.815.2,4.89,4.89,0,0,1,1.536.639,3.227,3.227,0,0,1,1.063,1.123,3.3,3.3,0,0,1,.4,1.67,4.2,4.2,0,0,1-.269,1.558,3.21,3.21,0,0,1-.795,1.171,4.718,4.718,0,0,1-1.16.8,8.813,8.813,0,0,1-1.493.575Q56.315-6.016,57.061-5t1.832,2.481a5.1,5.1,0,0,0,.854.951,4.518,4.518,0,0,0,.757.5,2.6,2.6,0,0,0,.7.215,5.224,5.224,0,0,0,.7.086ZM56.25-11.365a3,3,0,0,0-.795-2.2,3,3,0,0,0-2.245-.811H51.384v6.542h1.407a3.423,3.423,0,0,0,2.471-.951A3.417,3.417,0,0,0,56.25-11.365Z" transform="translate(412 295)" fill="#fff"/>
    <path id="Path_166" data-name="Path 166" d="M-68.75-31c-6.25-.25-9.5,4.75-8.5,16C-76-1-63.75,5.75-53.5,5.75c8.75,0,19.25-2.5,25-6.5,16.75,10.5,35,18.5,54.5,18.5C49.75,17.75,64.75,7,64.75,2,64.75,1,64,.25,62.5.25c-6.25,0-3.75,6.25-11.75,10C40.5,14,34.5,14.75,26,14.75c-18.5,0-36-7.5-52-17.5a26.1,26.1,0,0,0,8-18.5C-18-38.5-36.25-52-36.25-62.75c0-13.25,7.5-15,15.5-15,4.25,0,11,2.5,11,7,0,.75-.25,1.75-.25,2.5C-10-63.75-6.75-60-4.75-60c1.25,0,2-1.5,2-3.75,0-9-8.5-17-18.25-17.25-11.5-.25-21.25,7.5-21.25,19.25,0,15.25,16.5,26.5,16.5,41.5a19.462,19.462,0,0,1-6,13.75C-42.25-12.75-60.25-30.5-68.75-31Zm-5.5,14C-74.5-26.5-73-28.75-69.5-28.75c7,0,23.25,16.25,35.5,24.25a31.749,31.749,0,0,1-19.75,7C-65.25,2.5-74.25-6-74.25-17ZM38-32.5c0-.25.25-2.75-1.75-2.75A1.846,1.846,0,0,0,34.75-34,19.365,19.365,0,0,1,18.5-23.25C23-30.5,23.75-36,23.75-39c0-2.25-.25-8.5-6.75-8.5C4-47.5-17.75-24-17-5.5-16.75.25-13.25.75-11.25.75c13,0,25-17,25.5-17.75,1-1.5,1.5-2.75,3-2.75A23.221,23.221,0,0,0,38-32.5ZM-9-3.5c-.25,0-2,.25-2-3.75,0-10.5,6.75-22,12.75-28.5a8.5,8.5,0,0,0-.25,2.5c0,6.5,4.75,11.25,11,12.75C9.25-16.25-1-3.75-9-3.5Zm23.25-20c-6-1.75-9.5-5.5-9.5-9.75,0-2,2-9,8.75-9,1.75,0,4.75,1,4.75,6C18.25-34,17.5-30,14.25-23.5ZM51.5-48,69.25-69.75A9.083,9.083,0,0,0,70.5-74c0-1-.5-3.5-2.25-3.5A3.381,3.381,0,0,0,66-76.25c-1.5,0-45,52-45,71.25C21-5,20.5.75,26.5.5c.5,0,4.75.75,18.5-11.25,0,0,2-1.5,1.75-3,0-.75-1.5-.5-1.75-.25,0,.5-13.5,11.25-18,11.25-1,0-2-.25-2-2C25-6.75,25.5-13.25,51.5-48ZM77-18A55.6,55.6,0,0,1,64.25-7.75c-4.75,3-15.5,7.25-17,4A12.678,12.678,0,0,1,48-11c1-.25,1.75-.5,2.75-.75,11-5.25,32.5-13.75,26.5-30.5C75.5-47,70.5-47,66.75-45c-10.75,5-27,29-24,40.25,3,10.5,17.5,3,23,0,6-3.5,9-5.75,13.75-11.25,1.75-2.25,3.75-6,3-6.5C81.5-23,78.5-20.25,77-18ZM68.25-38c2.5-2,5.25-3.5,6-2,3,12-13,20.25-24.5,25C54-23.75,61-33,68.25-38Z" transform="translate(409 254)" fill="#fff"/>
  </g>
</svg>
