<svg xmlns="http://www.w3.org/2000/svg" width="506.613" height="52.628" viewBox="0 0 506.613 52.628">
  <g id="Group_179" data-name="Group 179" transform="translate(-593.973 -1028.645)">
    <g id="Layer_2" data-name="Layer 2" transform="translate(593.973 1028.645)">
      <g id="Layer_1" data-name="Layer 1">
        <rect id="Rectangle_1698" data-name="Rectangle 1698" width="75.019" height="50.192" fill="none"/>
        <g id="_Group_" data-name="&lt;Group&gt;" transform="translate(7.745 7.742)">
          <rect id="Rectangle_1699" data-name="Rectangle 1699" width="16.097" height="28.929" transform="translate(21.716 3.935)" fill="#ff5f00"/>
          <path id="_Path_" data-name="&lt;Path&gt;" d="M37.893,33.554A18.366,18.366,0,0,1,44.92,19.087a18.4,18.4,0,1,0,0,28.929A18.366,18.366,0,0,1,37.893,33.554Z" transform="translate(-15.155 -15.152)" fill="#eb001b"/>
          <path id="Path_191" data-name="Path 191" d="M103.167,33.552A18.4,18.4,0,0,1,73.4,48.015a18.4,18.4,0,0,0,0-28.929,18.4,18.4,0,0,1,29.767,14.462Z" transform="translate(-43.635 -15.151)" fill="#f79e1b"/>
          <path id="Path_192" data-name="Path 192" d="M127.858,72.775v-.593h.24V72.06h-.608v.123h.261v.593Zm1.18,0V72.06h-.184l-.215.511-.215-.511h-.164v.715h.133v-.537l.2.465h.138l.2-.465v.542Z" transform="translate(-70.084 -42.978)" fill="#f79e1b"/>
        </g>
      </g>
    </g>
    <g id="g4158" transform="translate(674.55 1035.686)">
      <path id="polygon9" d="M442.546,145.683h-9.039l5.653-34.956H448.2Z" transform="translate(-394.196 -110.093)" fill="#00579f"/>
      <path id="path11" d="M592.292,106.536a22.274,22.274,0,0,0-8.107-1.488c-8.926,0-15.211,4.76-15.25,11.565-.074,5.021,4.5,7.809,7.922,9.483,3.5,1.711,4.686,2.827,4.686,4.352-.036,2.342-2.826,3.421-5.428,3.421a17.989,17.989,0,0,1-8.481-1.859l-1.19-.559-1.265,7.847a27.508,27.508,0,0,0,10.08,1.86c9.484,0,15.658-4.686,15.731-11.938.036-3.979-2.379-7.028-7.587-9.52-3.161-1.6-5.1-2.678-5.1-4.314.037-1.488,1.638-3.012,5.206-3.012a15.357,15.357,0,0,1,6.733,1.338l.817.371,1.229-7.548Z" transform="translate(-511.176 -105.048)" fill="#00579f"/>
      <path id="path13" d="M804.506,133.3c.744-2.008,3.609-9.78,3.609-9.78-.038.075.743-2.045,1.189-3.347l.632,3.012s1.712,8.367,2.083,10.115Zm11.157-22.572h-6.991c-2.156,0-3.794.632-4.724,2.9l-13.426,32.055h9.484s1.561-4.314,1.9-5.244h11.6c.259,1.227,1.078,5.244,1.078,5.244h8.369l-7.292-34.956h0Z" transform="translate(-711.378 -110.093)" fill="#00579f"/>
      <path id="path15" d="M188.151,110.727,179.3,134.563l-.967-4.834c-1.636-5.578-6.769-11.639-12.5-14.652l8.108,30.569H183.5l14.207-34.919Z" transform="translate(-156.389 -110.093)" fill="#00579f"/>
      <path id="path17" d="M95.857,110.727H81.314l-.149.706c11.344,2.9,18.857,9.893,21.943,18.3l-3.161-16.065c-.52-2.233-2.12-2.865-4.091-2.938Z" transform="translate(-81.166 -110.093)" fill="#faa61a"/>
    </g>
    <g id="layer1" transform="translate(805.979 1035.67)">
      <path id="path3082" d="M249.14,1556.471v-15.636H265.7l1.776,2.316,1.835-2.316h60.1v14.558a6.943,6.943,0,0,1-3.389,1.078H292.738l-2-2.465v2.465h-6.563v-4.208a5.507,5.507,0,0,1-2.835.587H279.1v3.62h-9.937l-1.774-2.365-1.8,2.365Z" transform="translate(-229.806 -1520.345)" fill="#fff"/>
      <path id="path3080" d="M55.5,1344.327l3.734-8.7H65.69l2.119,4.876v-4.876h8.026l1.261,3.524,1.223-3.524h36.03v1.772a7.773,7.773,0,0,1,5.007-1.772l11.69.041,2.082,4.812v-4.853h6.717l1.849,2.764v-2.764h6.778v15.637h-6.778l-1.772-2.773v2.773h-9.869l-.992-2.465h-2.653l-.976,2.465H118.74a6.615,6.615,0,0,1-4.391-1.735v1.735H104.259l-2-2.465v2.465H64.734l-.992-2.465H61.1l-.985,2.465H55.5Z" transform="translate(-55.5 -1335.623)" fill="#fff"/>
      <path id="path3046" d="M60.729,1354.929l-5.036,11.708h3.279l.929-2.344h5.4l.924,2.344h3.351l-5.031-11.708Zm1.863,2.725,1.646,4.1h-3.3Z" transform="translate(-55.674 -1353.001)" fill="#016fd0"/>
      <path id="path3048" d="M198.223,1366.618v-11.708l4.659.017,2.71,7.549,2.645-7.566h4.622v11.708h-2.927v-8.627l-3.1,8.627h-2.567l-3.111-8.627v8.627Z" transform="translate(-183.973 -1352.984)" fill="#016fd0"/>
      <path id="path3050" d="M364.861,1366.618v-11.708h9.552v2.619h-6.594v2h6.44V1362h-6.44v2.08h6.594v2.542Z" transform="translate(-333.973 -1352.984)" fill="#016fd0"/>
      <path id="path3052" d="M477.5,1354.929v11.708h2.927v-4.159h1.232l3.51,4.159h3.577l-3.851-4.314a3.565,3.565,0,0,0,3.211-3.6,3.787,3.787,0,0,0-4.092-3.8Zm2.927,2.619h3.346a1.344,1.344,0,0,1,1.387,1.232,1.323,1.323,0,0,1-1.343,1.233h-3.389Z" transform="translate(-435.362 -1353.001)" fill="#016fd0"/>
      <path id="path3054" d="M598.675,1366.618h-2.989v-11.708h2.989Z" transform="translate(-541.752 -1352.984)" fill="#016fd0"/>
      <path id="path3056" d="M645.554,1366.618h-.645c-3.121,0-5.016-2.459-5.016-5.806,0-3.429,1.874-5.9,5.816-5.9h3.235v2.773h-3.353c-1.6,0-2.732,1.249-2.732,3.158a2.867,2.867,0,0,0,3.158,3.22h.77Z" transform="translate(-581.543 -1352.984)" fill="#016fd0"/>
      <path id="path3058" d="M714.988,1354.929l-5.036,11.708h3.279l.929-2.344h5.4l.924,2.344h3.351l-5.031-11.708Zm1.863,2.725,1.647,4.1h-3.3Z" transform="translate(-644.608 -1353.001)" fill="#016fd0"/>
      <path id="path3060" d="M852.433,1366.618v-11.708h3.722l4.752,7.356v-7.356h2.927v11.708h-3.6l-4.872-7.549v7.549Z" transform="translate(-772.863 -1352.984)" fill="#016fd0"/>
      <path id="path3062" d="M269.2,1571.83v-11.708h9.552v2.619h-6.594v2h6.44v2.465h-6.44v2.08h6.594v2.542Z" transform="translate(-247.862 -1537.706)" fill="#016fd0"/>
      <path id="path3064" d="M737.947,1571.83v-11.708H747.5v2.619H740.9v2h6.409v2.465H740.9v2.08H747.5v2.542Z" transform="translate(-669.807 -1537.706)" fill="#016fd0"/>
      <path id="path3066" d="M367.576,1571.83l4.651-5.782-4.761-5.926h3.688l2.836,3.664,2.845-3.664h3.543l-4.7,5.854,4.659,5.854H376.65l-2.753-3.606-2.686,3.606Z" transform="translate(-336.317 -1537.706)" fill="#016fd0"/>
      <path id="path3068" d="M499.869,1560.141v11.708h3v-3.7h3.081c2.607,0,4.583-1.383,4.583-4.073a3.853,3.853,0,0,0-4.2-3.938Zm3,2.648h3.245a1.321,1.321,0,0,1,1.444,1.348,1.35,1.35,0,0,1-1.454,1.348h-3.235Z" transform="translate(-455.501 -1537.724)" fill="#016fd0"/>
      <path id="path3072" d="M619.448,1560.122v11.708h2.927v-4.16h1.232l3.51,4.16h3.577l-3.852-4.314a3.566,3.566,0,0,0,3.211-3.6,3.787,3.787,0,0,0-4.092-3.8Zm2.927,2.619h3.346a1.344,1.344,0,0,1,1.387,1.232,1.323,1.323,0,0,1-1.343,1.232h-3.389Z" transform="translate(-563.14 -1537.706)" fill="#016fd0"/>
      <path id="path3074" d="M843.837,1571.83v-2.542h5.858c.867,0,1.242-.468,1.242-.982,0-.492-.374-.99-1.242-.99h-2.647a3.273,3.273,0,0,1-3.583-3.507c0-1.877,1.174-3.688,4.593-3.688h5.7l-1.232,2.634H847.6c-.942,0-1.232.495-1.232.967a1.021,1.021,0,0,0,1.078,1.021h2.773c2.565,0,3.678,1.455,3.678,3.36a3.511,3.511,0,0,1-3.818,3.726Z" transform="translate(-764.79 -1537.706)" fill="#016fd0"/>
      <path id="path3076" d="M951.433,1571.83v-2.542h5.858c.867,0,1.242-.468,1.242-.982,0-.492-.374-.99-1.242-.99h-2.647a3.273,3.273,0,0,1-3.583-3.507c0-1.877,1.174-3.688,4.593-3.688h5.7l-1.233,2.634h-4.93c-.942,0-1.232.495-1.232.967a1.02,1.02,0,0,0,1.078,1.021h2.773c2.565,0,3.678,1.455,3.678,3.36a3.51,3.51,0,0,1-3.818,3.726Z" transform="translate(-861.644 -1537.706)" fill="#016fd0"/>
    </g>
    <g id="Maestro_2016" transform="translate(925.672 1035.686)">
      <g id="Group_123" data-name="Group 123" transform="translate(0 0)">
        <g id="Group_118" data-name="Group 118" transform="translate(56.515 28.632)">
          <path id="Path_178" data-name="Path 178" d="M-3.681-1.695v-.7h-.183l-.212.483L-4.287-2.4h-.184v.7h.13v-.53l.2.457h.135l.2-.458v.531Zm-1.162,0v-.583h.235V-2.4h-.6v.119h.235v.583Z" transform="translate(5.207 2.397)" fill="#0099df"/>
        </g>
        <path id="Path_179" data-name="Path 179" d="M3587.713,2176.053h-15.848v-28.482h15.848Z" transform="translate(-3550.493 -2143.696)" fill="#6c6bbd"/>
        <g id="Group_119" data-name="Group 119" transform="translate(0 0)">
          <path id="Path_180" data-name="Path 180" d="M-54-43.7a18.083,18.083,0,0,1,6.918-14.241,18.034,18.034,0,0,0-11.194-3.873A18.112,18.112,0,0,0-76.392-43.7,18.112,18.112,0,0,0-58.281-25.582a18.034,18.034,0,0,0,11.194-3.873A18.083,18.083,0,0,1-54-43.7" transform="translate(76.392 61.809)" fill="#eb001b"/>
        </g>
        <g id="Group_120" data-name="Group 120" transform="translate(29.288 0)">
          <path id="Path_181" data-name="Path 181" d="M-70.7-43.7A18.112,18.112,0,0,1-88.806-25.582,18.04,18.04,0,0,1-100-29.455,18.081,18.081,0,0,0-93.082-43.7,18.081,18.081,0,0,0-100-57.936a18.04,18.04,0,0,1,11.195-3.873A18.112,18.112,0,0,1-70.7-43.7" transform="translate(100.001 61.809)" fill="#0099df"/>
        </g>
        <g id="Group_122" data-name="Group 122" transform="translate(49.71 44.632)">
          <path id="Path_183" data-name="Path 183" d="M-.983-.814V-.7h.109A.108.108,0,0,0-.815-.71.05.05,0,0,0-.792-.755.048.048,0,0,0-.815-.8.1.1,0,0,0-.874-.814ZM-.873-.9a.2.2,0,0,1,.131.038.126.126,0,0,1,.046.1.119.119,0,0,1-.037.091.183.183,0,0,1-.1.044l.145.167H-.8L-.94-.619H-.983v.166h-.094V-.9ZM-.9-.3A.349.349,0,0,0-.758-.33.378.378,0,0,0-.64-.41.37.37,0,0,0-.561-.528.379.379,0,0,0-.532-.673.379.379,0,0,0-.561-.819.383.383,0,0,0-.64-.937a.356.356,0,0,0-.117-.078A.349.349,0,0,0-.9-1.044a.364.364,0,0,0-.146.029.354.354,0,0,0-.12.078.361.361,0,0,0-.078.119.359.359,0,0,0-.029.145.359.359,0,0,0,.029.145.349.349,0,0,0,.078.119.375.375,0,0,0,.12.079A.364.364,0,0,0-.9-.3m0-.85a.469.469,0,0,1,.189.038.475.475,0,0,1,.155.1.469.469,0,0,1,.1.152.457.457,0,0,1,.038.185.457.457,0,0,1-.038.185.476.476,0,0,1-.1.151.5.5,0,0,1-.155.1A.469.469,0,0,1-.9-.2a.486.486,0,0,1-.192-.038.484.484,0,0,1-.155-.1.476.476,0,0,1-.1-.151.457.457,0,0,1-.038-.185.457.457,0,0,1,.038-.185.469.469,0,0,1,.1-.152.463.463,0,0,1,.155-.1A.486.486,0,0,1-.9-1.151" transform="translate(1.391 1.151)" fill="#231f20"/>
        </g>
      </g>
    </g>
    <g id="PayPal" transform="translate(1003.903 1041.944)">
      <path id="Path_184" data-name="Path 184" d="M43.914,6.749h-5.35a.743.743,0,0,0-.735.627L35.666,21.1a.446.446,0,0,0,.441.515h2.554a.743.743,0,0,0,.735-.628l.584-3.7a.743.743,0,0,1,.734-.628h1.694c3.524,0,5.558-1.705,6.09-5.085a4.121,4.121,0,0,0-.682-3.454,4.964,4.964,0,0,0-3.9-1.366Zm.617,5.011c-.293,1.92-1.759,1.92-3.178,1.92h-.807l.566-3.585a.446.446,0,0,1,.44-.376h.37c.966,0,1.878,0,2.348.551a1.783,1.783,0,0,1,.26,1.491ZM59.907,11.7H57.345a.446.446,0,0,0-.44.376l-.113.717-.179-.26a3.647,3.647,0,0,0-3.026-1.074,5.892,5.892,0,0,0-5.72,5.152,4.836,4.836,0,0,0,.954,3.936,4.009,4.009,0,0,0,3.227,1.3,4.9,4.9,0,0,0,3.546-1.467l-.114.712a.446.446,0,0,0,.44.516h2.308a.743.743,0,0,0,.735-.628l1.385-8.769a.444.444,0,0,0-.439-.515Zm-3.571,4.986a2.855,2.855,0,0,1-2.891,2.446,1.985,1.985,0,0,1-2.122-2.491,2.868,2.868,0,0,1,2.871-2.466,2.161,2.161,0,0,1,1.709.7,2.218,2.218,0,0,1,.433,1.813ZM73.552,11.7H70.977a.746.746,0,0,0-.616.326l-3.551,5.231-1.505-5.026a.746.746,0,0,0-.713-.53h-2.53a.446.446,0,0,0-.423.59l2.836,8.322-2.666,3.764a.446.446,0,0,0,.364.7h2.571a.742.742,0,0,0,.611-.319L73.918,12.4a.446.446,0,0,0-.366-.7Z" transform="translate(-7.763 -1.469)" fill="#253b80"/>
      <path id="Path_185" data-name="Path 185" d="M92.7,6.749H87.344a.743.743,0,0,0-.734.627L84.446,21.1a.445.445,0,0,0,.44.515h2.746a.52.52,0,0,0,.513-.44l.614-3.889a.743.743,0,0,1,.734-.628h1.693c3.525,0,5.558-1.705,6.09-5.085a4.118,4.118,0,0,0-.683-3.454,4.959,4.959,0,0,0-3.9-1.366Zm.617,5.011c-.292,1.92-1.759,1.92-3.178,1.92h-.807l.567-3.585a.444.444,0,0,1,.44-.376h.37c.965,0,1.878,0,2.348.551a1.783,1.783,0,0,1,.259,1.491Zm15.375-.062h-2.561a.444.444,0,0,0-.44.376l-.113.717-.18-.26a3.645,3.645,0,0,0-3.025-1.074,5.891,5.891,0,0,0-5.719,5.152,4.838,4.838,0,0,0,.954,3.936,4.011,4.011,0,0,0,3.227,1.3,4.9,4.9,0,0,0,3.546-1.467l-.114.712a.446.446,0,0,0,.441.516h2.307a.743.743,0,0,0,.734-.628l1.385-8.769a.447.447,0,0,0-.442-.515Zm-3.571,4.986a2.854,2.854,0,0,1-2.891,2.446A1.985,1.985,0,0,1,100.1,16.64a2.869,2.869,0,0,1,2.871-2.466,2.161,2.161,0,0,1,1.709.7A2.206,2.206,0,0,1,105.116,16.684Zm6.592-9.559-2.2,13.971a.445.445,0,0,0,.44.515h2.208a.742.742,0,0,0,.735-.628l2.165-13.719a.446.446,0,0,0-.44-.516h-2.472a.447.447,0,0,0-.44.377Z" transform="translate(-18.382 -1.469)" fill="#179bd7"/>
      <path id="Path_186" data-name="Path 186" d="M5.915,23.03l.409-2.6-.911-.021H1.061L4.085,1.234a.247.247,0,0,1,.246-.21h7.338c2.436,0,4.117.507,5,1.508a3.437,3.437,0,0,1,.8,1.5A5.414,5.414,0,0,1,17.47,6.1l-.009.06v.529l.411.233a2.887,2.887,0,0,1,.833.635,2.958,2.958,0,0,1,.676,1.516,6.413,6.413,0,0,1-.1,2.2,7.747,7.747,0,0,1-.9,2.49,5.122,5.122,0,0,1-1.428,1.565,5.792,5.792,0,0,1-1.923.868,9.589,9.589,0,0,1-2.4.278h-.571a1.718,1.718,0,0,0-1.7,1.45l-.043.234-.723,4.58-.033.168a.145.145,0,0,1-.045.1.121.121,0,0,1-.075.027H5.915Z" transform="translate(-0.231 -0.223)" fill="#253b80"/>
      <path id="Path_187" data-name="Path 187" d="M19.378,7.667q-.033.21-.075.43c-.968,4.968-4.278,6.685-8.507,6.685H8.643a1.046,1.046,0,0,0-1.033.886l-1.1,6.991L6.2,24.64a.551.551,0,0,0,.544.637h3.818a.919.919,0,0,0,.907-.774l.038-.194.719-4.562.046-.25a.918.918,0,0,1,.907-.776h.571c3.7,0,6.6-1.5,7.442-5.849.354-1.816.171-3.332-.765-4.4a3.651,3.651,0,0,0-1.045-.806Z" transform="translate(-1.347 -1.669)" fill="#179bd7"/>
      <path id="Path_188" data-name="Path 188" d="M18.761,7.054a7.633,7.633,0,0,0-.941-.209,11.957,11.957,0,0,0-1.9-.138H10.17a.917.917,0,0,0-.907.776L8.04,15.233l-.035.226a1.045,1.045,0,0,1,1.033-.886h2.153c4.228,0,7.539-1.717,8.507-6.685.029-.147.053-.29.075-.43a5.158,5.158,0,0,0-.8-.336q-.108-.036-.217-.068Z" transform="translate(-1.743 -1.46)" fill="#222d65"/>
      <path id="Path_189" data-name="Path 189" d="M7.521,6.023a.915.915,0,0,1,.907-.775h5.752a11.957,11.957,0,0,1,1.9.138,7.633,7.633,0,0,1,1.159.276,5.236,5.236,0,0,1,.8.336,4.693,4.693,0,0,0-1-4.218C15.942.534,13.967,0,11.439,0H4.1A1.049,1.049,0,0,0,3.064.886L.008,20.26a.631.631,0,0,0,.622.729H5.16L6.3,13.773l1.224-7.75Z" transform="translate(0 0)" fill="#253b80"/>
    </g>
  </g>
</svg>
